<svg width="1280" height="800" viewBox="0 0 1280 800" fill="none" xmlns="http://www.w3.org/2000/svg">
  <rect width="1280" height="800" rx="32" fill="#0C111B"/>
  <rect x="48" y="48" width="1184" height="704" rx="24" fill="#111827" stroke="#243041" stroke-width="2"/>
  <rect x="96" y="104" width="1088" height="96" rx="20" fill="#192235"/>
  <circle cx="144" cy="152" r="16" fill="#FF8A65"/>
  <circle cx="192" cy="152" r="16" fill="#FFD166"/>
  <circle cx="240" cy="152" r="16" fill="#06D6A0"/>
  <rect x="288" y="124" width="552" height="56" rx="16" fill="#0F172A"/>
  <rect x="320" y="142" width="304" height="20" rx="10" fill="#DCE7F7" fill-opacity="0.9"/>
  <rect x="96" y="248" width="1088" height="88" rx="20" fill="#0F172A"/>
  <rect x="128" y="278" width="280" height="18" rx="9" fill="#F8FAFC"/>
  <rect x="128" y="306" width="460" height="14" rx="7" fill="#8AA0BE"/>
  <rect x="1032" y="274" width="104" height="36" rx="12" fill="#1D4ED8"/>
  <rect x="96" y="360" width="1088" height="88" rx="20" fill="#101A2E"/>
  <rect x="128" y="390" width="240" height="18" rx="9" fill="#F8FAFC"/>
  <rect x="128" y="418" width="380" height="14" rx="7" fill="#8AA0BE"/>
  <rect x="96" y="472" width="1088" height="88" rx="20" fill="#0F172A"/>
  <rect x="128" y="502" width="220" height="18" rx="9" fill="#F8FAFC"/>
  <rect x="128" y="530" width="420" height="14" rx="7" fill="#8AA0BE"/>
  <rect x="96" y="600" width="520" height="96" rx="24" fill="#111E33" stroke="#243041" stroke-width="2"/>
  <path d="M160 648H352" stroke="#5EEAD4" stroke-width="16" stroke-linecap="round"/>
  <path d="M160 680H288" stroke="#60A5FA" stroke-width="16" stroke-linecap="round"/>
  <rect x="680" y="600" width="504" height="96" rx="24" fill="#111E33" stroke="#243041" stroke-width="2"/>
  <path d="M744 648H936" stroke="#F9A8D4" stroke-width="16" stroke-linecap="round"/>
  <path d="M744 680H1040" stroke="#FCD34D" stroke-width="16" stroke-linecap="round"/>
  <text x="640" y="736" text-anchor="middle" fill="#8AA0BE" font-family="Arial, sans-serif" font-size="28">Replace with a real Rayon screenshot or GIF</text>
</svg>
